<?xml version="1.0" standalone="no"?>
<!DOCTYPE svg PUBLIC "-//W3C//DTD SVG 20010904//EN"
 "http://www.w3.org/TR/2001/REC-SVG-20010904/DTD/svg10.dtd">
<svg version="1.0" xmlns="http://www.w3.org/2000/svg"
 width="16.000000pt" height="16.000000pt" viewBox="0 0 16.000000 16.000000"
 preserveAspectRatio="xMidYMid meet">
<metadata>
Created by potrace 1.11, written by Peter Selinger 2001-2013
</metadata>
<g transform="translate(0.000000,16.000000) scale(0.002381,-0.002381)"
fill="#000000" stroke="none">
<path d="M4909 6527 c-14 -8 -38 -17 -54 -21 -68 -17 -208 -145 -249 -226 -14
-30 -38 -73 -51 -95 -13 -22 -24 -48 -25 -57 0 -10 -6 -18 -14 -18 -14 0 -110
-72 -138 -105 -44 -50 -91 -126 -97 -156 -6 -32 -9 -33 -58 -36 -51 -3 -160
-26 -278 -58 -115 -31 -275 -125 -275 -162 0 -14 48 -21 150 -23 47 0 114 -6
150 -12 36 -6 129 -12 207 -15 93 -3 145 -8 151 -16 5 -7 23 -37 39 -67 30
-57 63 -111 73 -120 3 -3 28 -42 54 -87 26 -46 52 -86 57 -89 5 -3 9 -12 9
-20 0 -10 -12 -14 -44 -14 -24 0 -57 -7 -72 -15 -16 -8 -36 -15 -44 -15 -9 0
-24 -6 -35 -14 -11 -7 -31 -17 -45 -21 -14 -4 -47 -22 -75 -40 -27 -18 -72
-45 -98 -61 -27 -16 -65 -39 -85 -51 -21 -12 -44 -25 -52 -29 -19 -10 -123
-77 -130 -84 -3 -3 -41 -37 -85 -75 -44 -38 -84 -75 -88 -82 -4 -7 -12 -13
-17 -13 -14 0 -75 -63 -149 -153 -35 -43 -77 -93 -93 -110 -17 -18 -47 -53
-68 -79 -20 -25 -53 -64 -73 -85 -65 -69 -132 -145 -140 -158 -14 -25 -165
-46 -367 -50 -124 -3 -162 -1 -189 12 -19 8 -49 13 -70 11 -47 -6 -184 8 -207
21 -49 26 -176 81 -189 81 -8 0 -45 20 -82 45 -38 25 -75 50 -83 56 -67 44
-102 68 -131 92 -66 53 -234 169 -280 192 -26 13 -60 42 -76 64 -16 22 -67 73
-114 113 -94 81 -147 133 -200 197 -27 31 -45 44 -67 46 -17 1 -47 14 -67 29
-45 35 -295 285 -295 296 0 5 -16 25 -35 44 -19 20 -35 41 -35 46 0 5 -6 13
-13 17 -6 4 -26 28 -42 53 -17 25 -64 81 -107 125 -42 44 -96 102 -121 129
-27 30 -50 47 -59 44 -8 -3 -22 -33 -31 -67 -16 -58 -16 -62 3 -113 26 -67 63
-138 72 -138 3 0 9 -13 13 -28 3 -16 22 -53 42 -83 72 -108 103 -176 103 -222
0 -29 6 -49 17 -58 9 -8 34 -36 55 -64 41 -51 333 -351 429 -439 30 -27 113
-106 185 -175 72 -69 144 -137 161 -151 46 -39 232 -210 280 -258 23 -23 51
-59 62 -80 10 -20 40 -77 65 -125 25 -49 46 -99 46 -111 0 -24 34 -102 47
-108 5 -1 23 -32 40 -68 18 -36 37 -72 43 -80 12 -18 99 -173 120 -213 17 -34
142 -163 218 -226 28 -24 52 -47 52 -51 0 -5 -20 -41 -44 -82 -25 -40 -58 -98
-73 -128 -15 -30 -36 -64 -46 -75 -24 -26 -150 -288 -167 -345 -7 -25 -19 -65
-26 -90 -7 -25 -17 -71 -20 -102 l-7 -58 52 0 c72 0 186 19 219 36 15 8 33 14
40 14 8 0 26 6 40 14 15 7 50 24 77 36 82 36 140 65 145 71 3 4 19 10 36 13
17 4 40 19 51 34 11 15 43 38 71 52 29 14 52 28 52 32 0 9 248 130 298 147 28
9 47 7 105 -11 58 -18 103 -23 230 -26 86 -1 157 -5 157 -8 0 -12 -53 -86 -89
-126 -23 -23 -41 -47 -41 -51 0 -4 -12 -19 -26 -32 -31 -29 -27 -49 14 -72 30
-17 62 -59 98 -128 11 -22 46 -76 77 -120 32 -44 57 -86 57 -93 0 -7 5 -18 10
-25 35 -42 130 -184 130 -194 0 -7 4 -13 9 -13 5 0 13 -10 17 -22 3 -13 21
-39 39 -58 77 -82 124 -142 170 -216 54 -88 98 -158 141 -223 45 -68 83 -135
83 -148 1 -17 -56 -46 -104 -52 -36 -5 -40 -9 -40 -35 -1 -20 -8 -32 -27 -42
-34 -18 -46 -53 -24 -69 17 -13 22 -41 7 -47 -14 -5 -123 -100 -171 -149 -25
-25 -65 -58 -90 -72 -44 -25 -80 -59 -80 -76 0 -4 -9 -18 -20 -31 -11 -13 -20
-32 -20 -43 0 -16 5 -18 26 -14 18 3 49 -6 91 -27 59 -29 63 -33 57 -58 -9
-43 19 -36 79 21 277 260 316 292 344 284 34 -8 73 15 73 44 0 27 16 29 48 7
26 -18 42 -11 42 19 0 27 27 107 43 127 19 23 47 77 47 89 0 10 209 223 349
356 41 39 80 84 87 101 7 16 39 55 70 85 123 116 194 187 194 196 0 4 28 19
63 32 34 13 64 27 67 30 3 3 25 20 49 36 46 31 71 74 71 123 0 23 16 46 68 99
67 70 161 193 194 254 10 18 22 37 28 43 15 15 12 36 -5 36 -8 0 -15 6 -15 13
0 7 -13 23 -29 36 -24 20 -27 27 -18 42 9 14 9 21 0 30 -13 13 -58 -11 -104
-54 -14 -12 -52 -40 -84 -62 -33 -21 -76 -54 -97 -73 -70 -63 -107 -66 -298
-27 -36 8 -90 17 -120 21 -30 3 -61 10 -70 15 -33 19 -187 54 -295 69 -38 5
-104 16 -145 24 -41 8 -92 15 -113 15 -35 1 -115 21 -162 41 -11 5 -60 16
-110 25 -160 28 -147 23 -130 53 8 15 19 45 23 67 l8 40 124 7 c167 10 269 32
365 77 147 70 170 79 225 96 104 31 132 52 371 288 174 172 242 245 260 282
13 28 27 52 32 53 4 2 7 8 7 14 0 6 22 57 49 112 50 102 94 222 106 286 3 19
10 44 15 55 4 11 20 61 35 110 14 50 33 106 41 125 8 19 19 80 25 135 5 55 17
170 26 255 16 158 17 179 14 357 -2 109 -19 221 -46 293 -17 47 -16 84 6 135
7 17 22 59 34 95 l22 65 141 6 c125 6 144 9 174 30 41 28 48 38 48 66 0 24
-46 67 -96 88 -19 8 -34 18 -34 24 0 5 -9 12 -19 16 -11 3 -37 22 -58 41 -21
20 -64 54 -95 76 -31 22 -59 47 -63 55 -5 16 10 78 25 98 31 43 43 311 20 433
-12 66 -56 128 -171 242 -22 22 -39 49 -43 73 -4 22 -15 41 -27 48 -24 12 -65
5 -85 -16 -15 -14 -72 -11 -107 7 -10 5 -100 11 -200 14 -140 3 -188 1 -208
-9z m-1164 -4357 c44 -11 94 -20 110 -20 17 0 35 -4 40 -8 6 -5 44 -15 85 -22
41 -7 80 -16 85 -20 6 -4 46 -11 90 -15 102 -8 212 -29 461 -86 45 -11 99 -19
120 -19 22 -1 59 -5 84 -10 74 -16 290 -40 363 -40 50 0 67 -3 67 -14 0 -9
-14 -16 -37 -19 -38 -5 -124 -31 -153 -46 -22 -12 -24 -38 -6 -76 19 -39 20
-45 5 -45 -7 0 -22 -12 -35 -26 -17 -18 -22 -32 -18 -49 5 -19 -4 -36 -42 -81
-60 -70 -114 -125 -185 -184 -29 -25 -71 -61 -93 -80 -87 -73 -233 -229 -266
-283 -19 -31 -40 -57 -47 -57 -6 0 -20 15 -32 33 -19 29 -101 148 -118 172
-22 29 -93 136 -93 140 0 3 -7 13 -16 23 -29 31 -134 177 -134 186 0 5 -37 56
-83 115 -46 58 -96 131 -111 161 -28 54 -124 210 -136 220 -3 3 -18 26 -33 52
-25 44 -35 97 -20 111 11 12 66 7 148 -13z"/>
</g>
</svg>
